<svg width="167" height="137" viewBox="0 0 167 137" fill="none" xmlns="http://www.w3.org/2000/svg">
<path d="M70.4785 90.6244L126.463 107.07C129.489 107.958 132.662 106.226 133.551 103.2L142.674 72.1427C143.563 69.117 141.831 65.9436 138.805 65.0549L82.8203 48.6095C79.7946 47.7207 76.6212 49.453 75.7324 52.4787L66.6093 83.5365C65.7205 86.5622 67.4528 89.7356 70.4785 90.6244Z" fill="url(#paint0_linear)"/>
<path d="M66.7949 82.9023L133.737 102.566L136.248 94.0174L69.3061 74.3535L66.7949 82.9023Z" fill="url(#paint1_linear)"/>
<path d="M121.431 86.9179L129.951 89.4207C131.467 89.8659 133.056 88.9982 133.501 87.4827L134.806 83.0404C135.251 81.5249 134.384 79.9354 132.868 79.4902L124.348 76.9875C122.833 76.5423 121.243 77.41 120.798 78.9255L119.493 83.3678C119.048 84.8833 119.916 86.4728 121.431 86.9179Z" fill="#F7E041"/>
<path d="M124.467 82.4178C124.622 81.8903 124.929 81.4203 125.351 81.0674C125.772 80.7145 126.289 80.4945 126.835 80.4352C127.382 80.3758 127.933 80.4798 128.421 80.734C128.908 80.9882 129.309 81.3811 129.573 81.8632C129.838 82.3453 129.953 82.8949 129.905 83.4425C129.856 83.9901 129.647 84.5111 129.303 84.9397C128.959 85.3683 128.495 85.6852 127.971 85.8504C127.446 86.0156 126.885 86.0217 126.357 85.8678C125.65 85.659 125.055 85.179 124.701 84.5326C124.347 83.8862 124.263 83.1259 124.467 82.4178V82.4178Z" stroke="#FFC538" stroke-width="1.43" stroke-miterlimit="10"/>
<path d="M120.137 81.1478L124.467 82.4178" stroke="#FFC538" stroke-width="1.43" stroke-miterlimit="10"/>
<path d="M134.147 85.2578L129.807 83.9878" stroke="#FFC538" stroke-width="1.43" stroke-miterlimit="10"/>
<path d="M127.927 80.5378L128.597 78.2378" stroke="#FFC538" stroke-width="1.43" stroke-miterlimit="10"/>
<path d="M126.357 85.8678L125.677 88.1778" stroke="#FFC538" stroke-width="1.43" stroke-miterlimit="10"/>
<path d="M87.0973 73.3578L102.587 77.9078C103.011 78.033 103.368 78.3212 103.58 78.7093C103.792 79.0973 103.841 79.5535 103.717 79.9778C103.656 80.1887 103.554 80.3854 103.417 80.5568C103.28 80.7283 103.111 80.871 102.919 80.9769C102.726 81.0828 102.515 81.1497 102.297 81.1739C102.079 81.1981 101.858 81.179 101.647 81.1178L86.1573 76.5578C85.7326 76.4304 85.3754 76.1403 85.1638 75.7506C84.9521 75.361 84.903 74.9035 85.0273 74.4778C85.1546 74.0557 85.4437 73.701 85.8315 73.4912C86.2192 73.2814 86.6743 73.2334 87.0973 73.3578Z" fill="white"/>
<path d="M76.3773 70.2178L81.0673 71.5978C81.4913 71.723 81.8483 72.0112 82.0601 72.3993C82.272 72.7873 82.3213 73.2435 82.1973 73.6678C82.1364 73.8787 82.0344 74.0754 81.8974 74.2469C81.7603 74.4183 81.5909 74.561 81.3986 74.6669C81.2064 74.7728 80.9951 74.8397 80.777 74.8639C80.5588 74.8881 80.3381 74.869 80.1273 74.8078L75.4273 73.4278C75.0026 73.3004 74.6454 73.0103 74.4338 72.6206C74.2221 72.231 74.173 71.7735 74.2973 71.3478C74.4247 70.9231 74.7148 70.566 75.1045 70.3543C75.4941 70.1426 75.9516 70.0935 76.3773 70.2178Z" fill="white"/>
<path d="M121.544 112.163C121.549 108.667 122.551 105.245 124.432 102.298C126.313 99.3504 128.995 97.0005 132.164 95.5233V93.7733H137.414C142.221 93.8853 146.793 95.8736 150.153 99.313C153.513 102.752 155.395 107.37 155.395 112.178C155.395 116.987 153.513 121.604 150.153 125.044C146.793 128.483 142.221 130.471 137.414 130.583H132.164V128.833C128.99 127.355 126.304 125.001 124.422 122.047C122.541 119.094 121.542 115.665 121.544 112.163Z" fill="url(#paint2_linear)"/>
<path d="M150.061 116.422C152.414 106.536 146.308 96.6143 136.422 94.261C126.536 91.9077 116.614 98.014 114.261 107.9C111.908 117.786 118.014 127.707 127.9 130.061C137.786 132.414 147.707 126.308 150.061 116.422Z" fill="url(#paint3_linear)"/>
<path d="M113.804 112.233C113.809 108.595 114.892 105.04 116.915 102.017C118.939 98.9941 121.814 96.6384 125.175 95.2475C128.537 93.8566 132.235 93.4929 135.803 94.2023C139.372 94.9117 142.65 96.6623 145.224 99.2333L119.224 125.233C117.508 123.53 116.146 121.505 115.216 119.274C114.286 117.043 113.806 114.65 113.804 112.233Z" fill="url(#paint4_linear)"/>
<path d="M144.182 114.993C145.759 108.346 141.649 101.678 135.002 100.101C128.355 98.5235 121.688 102.633 120.11 109.28C118.533 115.928 122.642 122.595 129.29 124.172C135.937 125.75 142.604 121.64 144.182 114.993Z" fill="url(#paint5_linear)"/>
<path d="M132.164 99.7833C133.176 99.7904 134.184 99.9214 135.164 100.173C132.482 100.835 130.098 102.377 128.395 104.552C126.691 106.727 125.765 109.41 125.765 112.173C125.765 114.936 126.691 117.619 128.395 119.795C130.098 121.97 132.482 123.511 135.164 124.173C133.462 124.605 131.688 124.67 129.959 124.363C128.231 124.056 126.587 123.385 125.138 122.393C123.689 121.402 122.468 120.114 121.555 118.614C120.642 117.115 120.059 115.438 119.844 113.695C119.63 111.953 119.789 110.185 120.31 108.508C120.832 106.832 121.704 105.286 122.87 103.972C124.035 102.659 125.466 101.609 127.069 100.892C128.671 100.175 130.408 99.8073 132.164 99.8133V99.7833Z" fill="url(#paint6_linear)"/>
<path d="M127.744 112.163C127.746 110.699 128.162 109.264 128.944 108.026C129.726 106.787 130.842 105.795 132.164 105.163V104.383H135.534C137.553 104.456 139.465 105.309 140.868 106.763C142.271 108.216 143.055 110.158 143.055 112.178C143.055 114.199 142.271 116.14 140.868 117.594C139.465 119.048 137.553 119.901 135.534 119.973H132.164V119.193C130.838 118.56 129.718 117.563 128.936 116.318C128.154 115.074 127.74 113.633 127.744 112.163Z" fill="url(#paint7_linear)"/>
<path d="M7.5437 42.1634C7.54901 38.6671 8.55088 35.2448 10.4318 32.2977C12.3128 29.3505 14.9949 27.0006 18.1637 25.5234V23.7734H23.4137C28.2208 23.8854 32.7932 25.8737 36.1533 29.3131C39.5135 32.7525 41.3947 37.37 41.3947 42.1784C41.3947 46.9867 39.5135 51.6042 36.1533 55.0436C32.7932 58.483 28.2208 60.4713 23.4137 60.5834H18.1637V58.8334C14.9895 57.355 12.3036 55.0006 10.4222 52.0474C8.54076 49.0942 7.54209 45.665 7.5437 42.1634Z" fill="url(#paint8_linear)"/>
<path d="M47.0607 47.4219C49.414 37.5361 43.3077 27.6143 33.4219 25.261C23.5361 22.9077 13.6143 29.014 11.261 38.8998C8.90774 48.7856 15.014 58.7074 24.8998 61.0607C34.7856 63.414 44.7074 57.3077 47.0607 47.4219Z" fill="url(#paint9_linear)"/>
<path d="M10.8037 43.2333C10.8088 39.5953 11.8916 36.0403 13.9155 33.0172C15.9394 29.9941 18.8136 27.6384 22.1752 26.2476C25.5369 24.8567 29.2353 24.493 32.8035 25.2024C36.3717 25.9117 39.6497 27.6624 42.2237 30.2333L16.2237 56.2333C14.5082 54.5305 13.1462 52.5054 12.216 50.2744C11.2859 48.0434 10.8059 45.6505 10.8037 43.2333Z" fill="url(#paint10_linear)"/>
<path d="M41.1816 45.9929C42.759 39.3457 38.6492 32.6784 32.0021 31.101C25.3549 29.5235 18.6876 33.6333 17.1101 40.2805C15.5327 46.9276 19.6425 53.595 26.2896 55.1724C32.9368 56.7499 39.6041 52.6401 41.1816 45.9929Z" fill="url(#paint11_linear)"/>
<path d="M29.1639 30.7833C30.1761 30.7905 31.1836 30.9215 32.1639 31.1733C29.4815 31.8353 27.0982 33.3769 25.3946 35.5521C23.691 37.7272 22.7653 40.4104 22.7653 43.1733C22.7653 45.9362 23.691 48.6194 25.3946 50.7946C27.0982 52.9697 29.4815 54.5114 32.1639 55.1733C30.4622 55.6051 28.6881 55.6697 26.9595 55.3628C25.2308 55.0559 23.5873 54.3846 22.1382 53.3934C20.6891 52.4023 19.4676 51.114 18.5548 49.6143C17.6421 48.1146 17.0591 46.4377 16.8445 44.6952C16.6299 42.9528 16.7887 41.1846 17.3103 39.5082C17.8318 37.8318 18.7043 36.2857 19.8696 34.9725C21.035 33.6594 22.4665 32.6094 24.069 31.8923C25.6715 31.1751 27.4083 30.8073 29.1639 30.8133V30.7833Z" fill="url(#paint12_linear)"/>
<path d="M24.7439 43.1633C24.7459 41.6986 25.162 40.2642 25.944 39.0257C26.7261 37.7871 27.8423 36.7949 29.1639 36.1633V35.3833H32.5339C34.553 35.4557 36.4652 36.3086 37.868 37.7625C39.2708 39.2165 40.0547 41.158 40.0547 43.1783C40.0547 45.1987 39.2708 47.1402 37.868 48.5941C36.4652 50.0481 34.553 50.901 32.5339 50.9733H29.1639V50.1933C27.8377 49.5596 26.7184 48.5627 25.936 47.3183C25.1537 46.074 24.7403 44.6332 24.7439 43.1633Z" fill="url(#paint13_linear)"/>
<path d="M138.376 18.0937C140.008 18.5335 141.48 19.4291 142.62 20.6757C143.761 21.9223 144.522 23.4681 144.815 25.132L145.632 25.3508L144.975 27.8014C144.322 30.0311 142.822 31.9167 140.796 33.0549C138.771 34.1932 136.38 34.4937 134.136 33.8924C131.891 33.291 129.971 31.8354 128.786 29.8368C127.601 27.8382 127.245 25.4553 127.794 23.1975L128.45 20.747L129.267 20.9659C130.354 19.6692 131.789 18.7099 133.403 18.2011C135.017 17.6923 136.742 17.655 138.376 18.0937Z" fill="url(#paint14_linear)"/>
<path d="M103.376 44.0937C105.008 44.5335 106.48 45.4291 107.62 46.6757C108.761 47.9223 109.522 49.4681 109.815 51.132L110.632 51.3508L109.975 53.8014C109.322 56.0311 107.822 57.9167 105.796 59.0549C103.771 60.1932 101.38 60.4937 99.1357 59.8924C96.8914 59.291 94.9714 57.8354 93.7862 55.8368C92.6011 53.8382 92.2449 51.4553 92.7938 49.1975L93.4504 46.747L94.2672 46.9659C95.3543 45.6692 96.7891 44.7099 98.4029 44.2011C100.017 43.6923 101.742 43.655 103.376 44.0937Z" fill="url(#paint15_linear)"/>
<path d="M132.822 30.8719C137.142 33.2067 142.537 31.5974 144.872 27.2774C147.207 22.9574 145.597 17.5625 141.277 15.2276C136.957 12.8928 131.562 14.5021 129.228 18.8221C126.893 23.1422 128.502 28.537 132.822 30.8719Z" fill="url(#paint16_linear)"/>
<path d="M97.8221 56.8719C102.142 59.2067 107.537 57.5974 109.872 53.2774C112.207 48.9574 110.597 43.5625 106.277 41.2276C101.957 38.8928 96.5625 40.5021 94.2276 44.8221C91.8928 49.1422 93.5021 54.537 97.8221 56.8719Z" fill="url(#paint17_linear)"/>
<path d="M139.312 14.4722C141.009 14.9296 142.533 15.8796 143.691 17.2024C144.849 18.5252 145.589 20.1614 145.818 21.9044C146.047 23.6475 145.754 25.4193 144.977 26.9961C144.199 28.5729 142.972 29.884 141.45 30.7639L132.566 15.3762C133.575 14.7884 134.691 14.4059 135.849 14.2508C137.006 14.0957 138.183 14.1709 139.312 14.4722Z" fill="url(#paint18_linear)"/>
<path d="M104.312 40.4722C106.009 40.9296 107.533 41.8796 108.691 43.2024C109.849 44.5252 110.589 46.1614 110.818 47.9044C111.047 49.6475 110.754 51.4193 109.977 52.9961C109.199 54.5729 107.972 55.884 106.45 56.7639L97.566 41.3762C98.5754 40.7884 99.691 40.4059 100.849 40.2508C102.006 40.0957 103.183 40.1709 104.312 40.4722Z" fill="url(#paint19_linear)"/>
<path d="M134.224 28.3064C137.13 29.8741 140.756 28.7897 142.324 25.8843C143.891 22.9789 142.807 19.3528 139.901 17.7851C136.996 16.2175 133.37 17.3019 131.802 20.2073C130.235 23.1127 131.319 26.7388 134.224 28.3064Z" fill="url(#paint20_linear)"/>
<path d="M99.2244 54.3064C102.13 55.8741 105.756 54.7897 107.324 51.8843C108.891 48.9789 107.807 45.3528 104.901 43.7851C101.996 42.2175 98.3699 43.3019 96.8023 46.2073C95.2346 49.1127 96.319 52.7388 99.2244 54.3064Z" fill="url(#paint21_linear)"/>
<path d="M142.827 24.5993C142.697 25.0708 142.51 25.5247 142.27 25.9508C142.296 24.6159 141.875 23.3107 141.072 22.2434C140.27 21.1762 139.133 20.4085 137.844 20.063C136.554 19.7174 135.186 19.8139 133.958 20.3371C132.729 20.8602 131.712 21.7798 131.067 22.9491C131.078 22.1008 131.27 21.2646 131.63 20.4961C131.989 19.7276 132.508 19.0445 133.152 18.492C133.796 17.9396 134.55 17.5306 135.364 17.2921C136.178 17.0536 137.034 16.9912 137.874 17.109C138.714 17.2267 139.52 17.522 140.237 17.9751C140.954 18.4283 141.567 19.0289 142.034 19.737C142.501 20.4452 142.812 21.2447 142.946 22.0824C143.081 22.9201 143.035 23.7768 142.813 24.5955L142.827 24.5993Z" fill="url(#paint22_linear)"/>
<path d="M107.827 50.5993C107.697 51.0708 107.51 51.5247 107.27 51.9508C107.296 50.6159 106.875 49.3107 106.072 48.2434C105.27 47.1762 104.133 46.4085 102.844 46.063C101.554 45.7174 100.186 45.8139 98.9576 46.3371C97.7293 46.8602 96.7116 47.7798 96.0672 48.9491C96.0785 48.1008 96.2702 47.2646 96.6296 46.4961C96.9891 45.7276 97.508 45.0445 98.1519 44.492C98.7957 43.9396 99.5498 43.5306 100.364 43.2921C101.178 43.0536 102.034 42.9912 102.874 43.109C103.714 43.2267 104.52 43.522 105.237 43.9751C105.954 44.4283 106.567 45.0289 107.034 45.737C107.501 46.4452 107.812 47.2447 107.946 48.0824C108.081 48.9201 108.035 49.7768 107.813 50.5955L107.827 50.5993Z" fill="url(#paint23_linear)"/>
<path d="M137.601 20.9878C138.284 21.1719 138.902 21.5455 139.382 22.0654C139.863 22.5854 140.186 23.2305 140.316 23.9264L140.68 24.0239L140.258 25.5969C139.972 26.5303 139.335 27.3162 138.481 27.7891C137.626 28.2621 136.622 28.3851 135.679 28.1324C134.736 27.8798 133.928 27.271 133.425 26.4344C132.921 25.5978 132.763 24.5986 132.981 23.6471L133.403 22.0741L133.767 22.1716C134.229 21.6319 134.834 21.2341 135.513 21.0245C136.191 20.815 136.915 20.8022 137.601 20.9878Z" fill="url(#paint24_linear)"/>
<path d="M102.601 46.9878C103.284 47.1719 103.902 47.5455 104.382 48.0654C104.863 48.5854 105.186 49.2305 105.316 49.9264L105.68 50.0239L105.258 51.5969C104.972 52.5303 104.335 53.3162 103.481 53.7891C102.626 54.2621 101.622 54.3851 100.679 54.1324C99.7361 53.8798 98.9279 53.271 98.4247 52.4344C97.9215 51.5978 97.7625 50.5986 97.9813 49.6471L98.4028 48.0741L98.7669 48.1716C99.2285 47.6319 99.8338 47.2341 100.513 47.0245C101.191 46.815 101.915 46.8022 102.601 46.9878Z" fill="url(#paint25_linear)"/>
<path d="M87.7456 22.6647L31.1461 37.8356C28.0872 38.6556 26.2721 41.8 27.092 44.859L35.5082 76.2579C36.3281 79.3168 39.4726 81.1319 42.5315 80.312L99.131 65.141C102.19 64.321 104.005 61.1766 103.185 58.1177L94.7689 26.7188C93.949 23.6598 90.8046 21.8447 87.7456 22.6647Z" fill="url(#paint26_linear)"/>
<path d="M83.8394 22.4904L27.5121 37.7203C24.4678 38.5434 22.6673 41.6785 23.4904 44.7227L31.9393 75.9707C32.7624 79.0149 35.8975 80.8155 38.9417 79.9924L95.2691 64.7624C98.3133 63.9393 100.114 60.8042 99.2907 57.76L90.8419 26.5121C90.0187 23.4678 86.8837 21.6673 83.8394 22.4904Z" fill="url(#paint27_linear)"/>
<path d="M96.7934 48.5206L29.4419 66.7313L31.7675 75.3324L99.119 57.1217L96.7934 48.5206Z" fill="url(#paint28_linear)"/>
<path d="M84.709 30.0862L76.1368 32.4039C74.612 32.8162 73.7102 34.3865 74.1225 35.9113L75.3309 40.3808C75.7432 41.9056 77.3135 42.8074 78.8383 42.3952L87.4105 40.0774C88.9352 39.6651 89.8371 38.0948 89.4249 36.57L88.2164 32.1005C87.8041 30.5758 86.2338 29.6739 84.709 30.0862Z" fill="#F7E041"/>
<path d="M84.4514 35.5118C84.3073 34.9809 84.009 34.5048 83.5942 34.1436C83.1794 33.7824 82.6667 33.5523 82.1212 33.4826C81.5756 33.4128 81.0216 33.5065 80.5292 33.7517C80.0369 33.9969 79.6283 34.3826 79.3553 34.8601C79.0822 35.3376 78.9569 35.8853 78.9953 36.434C79.0337 36.9827 79.2339 37.5077 79.5708 37.9425C79.9076 38.3774 80.3658 38.7025 80.8875 38.8768C81.4092 39.0511 81.9709 39.0668 82.5014 38.9218C82.8539 38.8268 83.1841 38.6631 83.4731 38.4401C83.7621 38.217 84.0042 37.9391 84.1854 37.6222C84.3666 37.3053 84.4834 36.9557 84.5291 36.5935C84.5747 36.2313 84.5483 35.8637 84.4514 35.5118V35.5118Z" stroke="#FFC538" stroke-width="1.43" stroke-miterlimit="10"/>
<path d="M88.8214 34.3318L84.4514 35.5117" stroke="#FFC538" stroke-width="1.43" stroke-miterlimit="10"/>
<path d="M74.7312 38.1418L79.0912 36.9618" stroke="#FFC538" stroke-width="1.43" stroke-miterlimit="10"/>
<path d="M81.0514 33.5518L80.4214 31.2418" stroke="#FFC538" stroke-width="1.43" stroke-miterlimit="10"/>
<path d="M82.5012 38.9218L83.1212 41.2318" stroke="#FFC538" stroke-width="1.43" stroke-miterlimit="10"/>
<path d="M36.8976 45.1232C36.9484 42.8152 35.1186 40.9031 32.8106 40.8523C30.5026 40.8016 28.5904 42.6314 28.5397 44.9394C28.4889 47.2474 30.3188 49.1595 32.6268 49.2103C34.9347 49.2611 36.8469 47.4312 36.8976 45.1232Z" fill="#FFA538"/>
<path d="M42.4314 42.4218C42.2147 41.624 41.7663 40.9084 41.143 40.3655C40.5197 39.8225 39.7493 39.4766 38.9294 39.3714C38.1095 39.2662 37.2768 39.4065 36.5366 39.7745C35.7964 40.1426 35.1819 40.7218 34.7709 41.439C34.3598 42.1562 34.1707 42.9792 34.2274 43.8039C34.284 44.6286 34.5839 45.418 35.0892 46.0723C35.5944 46.7265 36.2823 47.2163 37.0659 47.4796C37.8495 47.743 38.6935 47.7681 39.4914 47.5518C40.5602 47.2592 41.4696 46.5552 42.0206 45.5938C42.5716 44.6324 42.7193 43.4918 42.4314 42.4218Z" fill="#F7E041"/>
<defs>
<linearGradient id="paint0_linear" x1="-24619.1" y1="2910.38" x2="-23844" y2="271.425" gradientUnits="userSpaceOnUse">
<stop stop-color="#2F97F7"/>
<stop offset="1" stop-color="#C9EDFF"/>
</linearGradient>
<linearGradient id="paint1_linear" x1="-20274" y1="-4055.26" x2="-24382.2" y2="-5262.03" gradientUnits="userSpaceOnUse">
<stop stop-color="#292929"/>
<stop offset="1" stop-color="#424242"/>
</linearGradient>
<linearGradient id="paint2_linear" x1="-12089" y1="7466.45" x2="-12089" y2="6672.82" gradientUnits="userSpaceOnUse">
<stop stop-color="#FFA538"/>
<stop offset="1" stop-color="#F7E041"/>
</linearGradient>
<linearGradient id="paint3_linear" x1="-13352.8" y1="8359.8" x2="-13351.4" y2="6790.39" gradientUnits="userSpaceOnUse">
<stop stop-color="#FFA538"/>
<stop offset="1" stop-color="#F7E041"/>
</linearGradient>
<linearGradient id="paint4_linear" x1="4987.48" y1="13476.2" x2="4159.79" y2="12829.2" gradientUnits="userSpaceOnUse">
<stop stop-color="white"/>
<stop offset="1" stop-color="white" stop-opacity="0"/>
</linearGradient>
<linearGradient id="paint5_linear" x1="-8923.22" y1="5340.79" x2="-8923.01" y2="4227.25" gradientUnits="userSpaceOnUse">
<stop stop-color="#FFA538"/>
<stop offset="1" stop-color="#F7E041"/>
</linearGradient>
<linearGradient id="paint6_linear" x1="-5587.25" y1="4882.36" x2="-5587.25" y2="5595.98" gradientUnits="userSpaceOnUse">
<stop stop-color="#FFA538"/>
<stop offset="1" stop-color="#F7E041"/>
</linearGradient>
<linearGradient id="paint7_linear" x1="-5434.14" y1="3109.2" x2="-5434.14" y2="3364.41" gradientUnits="userSpaceOnUse">
<stop stop-color="#FFA538"/>
<stop offset="1" stop-color="#F7E041"/>
</linearGradient>
<linearGradient id="paint8_linear" x1="-12203" y1="7396.45" x2="-12203" y2="6602.82" gradientUnits="userSpaceOnUse">
<stop stop-color="#FFA538"/>
<stop offset="1" stop-color="#F7E041"/>
</linearGradient>
<linearGradient id="paint9_linear" x1="-13455.8" y1="8290.8" x2="-13454.4" y2="6721.39" gradientUnits="userSpaceOnUse">
<stop stop-color="#FFA538"/>
<stop offset="1" stop-color="#F7E041"/>
</linearGradient>
<linearGradient id="paint10_linear" x1="4884.48" y1="13407.2" x2="4056.79" y2="12760.2" gradientUnits="userSpaceOnUse">
<stop stop-color="white"/>
<stop offset="1" stop-color="white" stop-opacity="0"/>
</linearGradient>
<linearGradient id="paint11_linear" x1="-9026.22" y1="5271.79" x2="-9026.01" y2="4158.25" gradientUnits="userSpaceOnUse">
<stop stop-color="#FFA538"/>
<stop offset="1" stop-color="#F7E041"/>
</linearGradient>
<linearGradient id="paint12_linear" x1="-5690.25" y1="4813.36" x2="-5690.25" y2="5526.98" gradientUnits="userSpaceOnUse">
<stop stop-color="#FFA538"/>
<stop offset="1" stop-color="#F7E041"/>
</linearGradient>
<linearGradient id="paint13_linear" x1="-5537.14" y1="3040.2" x2="-5537.14" y2="3295.41" gradientUnits="userSpaceOnUse">
<stop stop-color="#FFA538"/>
<stop offset="1" stop-color="#F7E041"/>
</linearGradient>
<linearGradient id="paint14_linear" x1="-1767.18" y1="-6601.2" x2="-1396.75" y2="-6501.94" gradientUnits="userSpaceOnUse">
<stop stop-color="#FFA538"/>
<stop offset="1" stop-color="#F7E041"/>
</linearGradient>
<linearGradient id="paint15_linear" x1="-1802.18" y1="-6575.2" x2="-1431.75" y2="-6475.94" gradientUnits="userSpaceOnUse">
<stop stop-color="#FFA538"/>
<stop offset="1" stop-color="#F7E041"/>
</linearGradient>
<linearGradient id="paint16_linear" x1="-2026.12" y1="-7302.79" x2="-1293.74" y2="-7105.86" gradientUnits="userSpaceOnUse">
<stop stop-color="#FFA538"/>
<stop offset="1" stop-color="#F7E041"/>
</linearGradient>
<linearGradient id="paint17_linear" x1="-2061.12" y1="-7276.79" x2="-1328.74" y2="-7079.86" gradientUnits="userSpaceOnUse">
<stop stop-color="#FFA538"/>
<stop offset="1" stop-color="#F7E041"/>
</linearGradient>
<linearGradient id="paint18_linear" x1="-6708.09" y1="617.915" x2="-6302.59" y2="312.493" gradientUnits="userSpaceOnUse">
<stop stop-color="white"/>
<stop offset="1" stop-color="white" stop-opacity="0"/>
</linearGradient>
<linearGradient id="paint19_linear" x1="-6743.09" y1="643.915" x2="-6337.59" y2="338.493" gradientUnits="userSpaceOnUse">
<stop stop-color="white"/>
<stop offset="1" stop-color="white" stop-opacity="0"/>
</linearGradient>
<linearGradient id="paint20_linear" x1="-1170.95" y1="-4857.65" x2="-651.207" y2="-4718.28" gradientUnits="userSpaceOnUse">
<stop stop-color="#FFA538"/>
<stop offset="1" stop-color="#F7E041"/>
</linearGradient>
<linearGradient id="paint21_linear" x1="-1205.95" y1="-4831.65" x2="-686.207" y2="-4692.28" gradientUnits="userSpaceOnUse">
<stop stop-color="#FFA538"/>
<stop offset="1" stop-color="#F7E041"/>
</linearGradient>
<linearGradient id="paint22_linear" x1="-1374.2" y1="-3243.19" x2="-1707.29" y2="-3332.44" gradientUnits="userSpaceOnUse">
<stop stop-color="#FFA538"/>
<stop offset="1" stop-color="#F7E041"/>
</linearGradient>
<linearGradient id="paint23_linear" x1="-1409.2" y1="-3217.19" x2="-1742.29" y2="-3306.44" gradientUnits="userSpaceOnUse">
<stop stop-color="#FFA538"/>
<stop offset="1" stop-color="#F7E041"/>
</linearGradient>
<linearGradient id="paint24_linear" x1="-565.692" y1="-2949.96" x2="-684.815" y2="-2981.87" gradientUnits="userSpaceOnUse">
<stop stop-color="#FFA538"/>
<stop offset="1" stop-color="#F7E041"/>
</linearGradient>
<linearGradient id="paint25_linear" x1="-600.692" y1="-2923.96" x2="-719.815" y2="-2955.87" gradientUnits="userSpaceOnUse">
<stop stop-color="#FFA538"/>
<stop offset="1" stop-color="#F7E041"/>
</linearGradient>
<linearGradient id="paint26_linear" x1="68.1685" y1="62.773" x2="51.8379" y2="1.84725" gradientUnits="userSpaceOnUse">
<stop stop-color="#06DAAE"/>
<stop offset="1" stop-color="#9BF0DF"/>
</linearGradient>
<linearGradient id="paint27_linear" x1="18951" y1="2846.4" x2="18233.1" y2="191.288" gradientUnits="userSpaceOnUse">
<stop stop-color="#06DAAE"/>
<stop offset="1" stop-color="#9BF0DF"/>
</linearGradient>
<linearGradient id="paint28_linear" x1="15195.2" y1="-2616.48" x2="19328.5" y2="-3734.07" gradientUnits="userSpaceOnUse">
<stop stop-color="#292929"/>
<stop offset="1" stop-color="#424242"/>
</linearGradient>
</defs>
</svg>
