<svg width="167" height="137" viewBox="0 0 167 137" fill="none" xmlns="http://www.w3.org/2000/svg">
<g clip-path="url(#clip0)">
<path d="M144.038 88.3149L137.344 88.6789C135.7 88.7418 134.085 89.1312 132.594 89.8243C131.102 90.5175 129.763 91.5006 128.655 92.7163C127.547 93.9321 126.692 95.3562 126.14 96.9056C125.588 98.455 125.35 100.099 125.44 101.741C125.53 103.384 125.945 104.992 126.662 106.472C127.38 107.952 128.385 109.275 129.618 110.363C130.852 111.451 132.29 112.282 133.848 112.809C135.406 113.336 137.053 113.547 138.694 113.431L145.39 113.059C147.033 112.996 148.648 112.607 150.14 111.914C151.631 111.221 152.97 110.237 154.078 109.022C155.186 107.806 156.041 106.382 156.593 104.832C157.145 103.283 157.383 101.639 157.293 99.9968C157.204 98.3544 156.788 96.7463 156.071 95.2661C155.353 93.7859 154.349 92.4633 153.115 91.3754C151.881 90.2874 150.444 89.4558 148.885 88.929C147.327 88.4023 145.68 88.1909 144.039 88.3073L144.038 88.3149Z" fill="url(#paint0_linear)"/>
<path d="M79.0457 80.2378L72.3435 80.6009C70.6999 80.6637 69.0852 81.0531 67.5935 81.7463C66.1019 82.4395 64.7631 83.4225 63.6552 84.6383C62.5473 85.854 61.6925 87.2781 61.1404 88.8276C60.5884 90.377 60.3503 92.0208 60.4399 93.6632C60.5295 95.3056 60.9451 96.9137 61.6625 98.3939C62.3798 99.8741 63.3845 101.197 64.6181 102.285C65.8517 103.373 67.2895 104.204 68.8477 104.731C70.406 105.258 72.0534 105.469 73.6942 105.353L80.3963 104.99C83.6409 104.76 86.665 103.264 88.8165 100.824C90.968 98.3845 92.0745 95.1971 91.8972 91.9493C91.72 88.7014 90.2733 85.6534 87.8691 83.4625C85.465 81.2716 82.296 80.1134 79.0457 80.2378Z" fill="url(#paint1_linear)"/>
<path d="M46.8117 86.6538L40.1162 87.0255L40.2254 89.0215C38.5519 90.2343 37.2098 91.848 36.3222 93.7145C35.4346 95.5809 35.0299 97.6404 35.1452 99.7039C35.2606 101.767 35.8923 103.769 36.9823 105.525C38.0724 107.281 39.586 108.735 41.3842 109.754L41.4934 111.75L48.1955 111.387C51.3811 111.078 54.3238 109.55 56.408 107.121C58.4921 104.692 59.5562 101.551 59.3774 98.3559C59.1986 95.1605 57.7908 92.158 55.4487 89.9769C53.1067 87.7958 50.0117 86.605 46.8117 86.6538Z" fill="url(#paint2_linear)"/>
<path d="M103.367 83.5707L96.6716 83.9423L96.7817 85.9308C95.1044 87.142 93.7583 88.7553 92.8669 90.6224C91.9756 92.4894 91.5676 94.5505 91.6805 96.6164C91.7933 98.6822 92.4232 100.687 93.5126 102.446C94.6019 104.205 96.1157 105.662 97.9149 106.683L98.0241 108.679L104.72 108.307C106.363 108.245 107.978 107.855 109.47 107.162C110.961 106.469 112.3 105.486 113.408 104.27C114.516 103.054 115.371 101.63 115.923 100.081C116.475 98.5313 116.713 96.8875 116.623 95.2451C116.534 93.6027 116.118 91.9945 115.401 90.5144C114.683 89.0342 113.679 87.7116 112.445 86.6236C111.211 85.5356 109.774 84.704 108.215 84.1773C106.657 83.6505 105.01 83.4392 103.369 83.5555L103.367 83.5707Z" fill="url(#paint3_linear)"/>
<path d="M13.5874 17.6236L72.3485 14.4174C73.0865 14.3771 73.8104 14.6317 74.3607 15.1251C74.9111 15.6185 75.2429 16.3103 75.2832 17.0484L78.3638 73.5083L14.0447 77.0178L10.964 20.5579C10.9238 19.8212 11.1774 19.0985 11.6692 18.5485C12.161 17.9984 12.8508 17.6658 13.5874 17.6236Z" fill="url(#paint4_linear)"/>
<path d="M70.4207 14.521L109.595 12.3835C110.333 12.3432 111.057 12.5978 111.607 13.0912C112.157 13.5846 112.489 14.2764 112.529 15.0145L115.61 71.4744L70.8704 73.9155L67.7893 17.448C67.7511 16.7112 68.0067 15.9893 68.5 15.4406C68.9932 14.8919 69.684 14.5612 70.4207 14.521Z" fill="url(#paint5_linear)"/>
<path d="M99.7734 12.919L80.2475 13.9844L80.6901 22.0959L100.216 21.0305L99.7734 12.919Z" fill="url(#paint6_linear)"/>
<path d="M99.7734 12.919L80.2475 13.9844L80.6901 22.0959L100.216 21.0305L99.7734 12.919Z" stroke="white" stroke-width="0.45" stroke-miterlimit="10"/>
<path d="M29.6916 63.4787L23.6012 56.4265L18.3136 64.0995L20.4882 63.9814L20.7646 69.0066L27.7858 68.6211L27.517 63.5968L29.6916 63.4787Z" fill="url(#paint7_linear)"/>
<path d="M29.3373 67.9474L18.0052 68.6188L18.1343 70.7969L29.4663 70.1255L29.3373 67.9474Z" fill="url(#paint8_linear)"/>
<path d="M50.0347 30.145L30.5089 31.2104L31.1096 42.2195L50.6354 41.1541L50.0347 30.145Z" fill="white"/>
<path d="M141.999 69.5412L125.366 48.4317C124.444 47.2617 123.254 46.3309 121.897 45.718C120.54 45.1052 119.055 44.8283 117.568 44.9108L80.5604 46.9284C79.6719 46.9788 78.8397 47.3794 78.2462 48.0424C77.6526 48.7054 77.3463 49.5768 77.3942 50.4653L80.0194 98.8952L137.632 95.7493L152.678 94.9089L151.979 82.2253C151.821 79.3352 150.775 76.5641 148.984 74.2906C147.193 72.017 144.744 70.3518 141.971 69.5223L141.999 69.5412Z" fill="url(#paint9_linear)"/>
<path d="M118.578 78.8857L148.463 77.2566L148.809 83.6017L118.946 85.2336L118.578 78.8857Z" fill="url(#paint10_linear)"/>
<path d="M104.114 71.6128L95.2701 49.4487C94.8935 48.4999 94.2284 47.6935 93.3687 47.1433C92.5089 46.5932 91.498 46.3271 90.4788 46.3826L72.8099 47.3476C71.9214 47.398 71.0892 47.7986 70.4957 48.4616C69.9021 49.1246 69.5957 49.9959 69.6437 50.8845L72.285 99.3087L105.495 97.4947L114.76 96.992L114.061 84.3084C113.904 81.4179 112.859 78.6463 111.068 76.3725C109.276 74.0988 106.826 72.4338 104.053 71.6053L104.114 71.6128Z" fill="url(#paint11_linear)"/>
<path d="M13.564 76.5521L70.9038 73.4267L72.3459 99.3162L30.0722 101.627L16.7565 96.9947C15.8591 96.6842 15.0742 96.1142 14.5013 95.357C13.9284 94.5997 13.5933 93.6894 13.5385 92.7414L12.7103 77.5965C12.6899 77.3458 12.7675 77.097 12.9266 76.9022C13.0858 76.7075 13.3143 76.582 13.564 76.5521Z" fill="url(#paint12_linear)"/>
<path d="M50.4031 107.28C54.7445 101.987 53.9727 94.1758 48.6792 89.8344C43.3857 85.4929 35.575 86.2647 31.2336 91.5582C26.8921 96.8517 27.6639 104.662 32.9574 109.004C38.2509 113.345 46.0616 112.574 50.4031 107.28Z" fill="url(#paint13_linear)"/>
<path d="M46.3292 102.044C47.781 99.0029 46.4924 95.3603 43.4509 93.9085C40.4094 92.4567 36.7669 93.7454 35.3151 96.7869C33.8633 99.8284 35.152 103.471 38.1935 104.923C41.2349 106.374 44.8774 105.086 46.3292 102.044Z" fill="url(#paint14_linear)"/>
<path d="M45.0936 99.171C45.0487 98.324 44.7536 97.5092 44.2456 96.8299C43.7376 96.1506 43.0395 95.6373 42.2397 95.3548C41.4398 95.0724 40.5742 95.0335 39.7522 95.2432C38.9303 95.4528 38.189 95.9016 37.6221 96.5326C37.0553 97.1637 36.6884 97.9487 36.5678 98.7883C36.4472 99.628 36.5784 100.485 36.9447 101.25C37.3111 102.015 37.8961 102.654 38.6258 103.086C39.3555 103.519 40.1971 103.725 41.0441 103.679C42.1787 103.618 43.2425 103.108 44.0017 102.263C44.761 101.418 45.1537 100.306 45.0936 99.171Z" fill="url(#paint15_linear)"/>
<path d="M42.2744 95.3757C41.4079 95.0614 40.4632 95.0347 39.5804 95.2996C38.6975 95.5644 37.9235 96.1067 37.3731 96.8461C36.8227 97.5854 36.5252 98.4824 36.5247 99.4042C36.5242 100.326 36.8208 101.223 37.3704 101.963C37.92 102.703 38.6934 103.246 39.576 103.512C40.4586 103.778 41.4033 103.752 42.2702 103.439C43.137 103.125 43.8797 102.541 44.3883 101.772C44.8969 101.004 45.1442 100.091 45.0936 99.171C45.0484 98.3314 44.757 97.5238 44.2556 96.8488C43.7542 96.1738 43.0652 95.6615 42.2744 95.3757Z" fill="url(#paint16_linear)"/>
<path d="M68.6885 75.3215L12.6874 78.3771L12.8501 81.3587L68.8512 78.3031L68.6885 75.3215Z" fill="url(#paint17_linear)"/>
<path d="M100.324 71.8175L91.9593 50.7769C91.8588 50.5272 91.6825 50.3154 91.4553 50.1712C91.2282 50.027 90.9615 49.9577 90.6928 49.973L73.2584 50.9129L74.4781 73.2186L89.4503 72.4154C90.7026 72.3436 91.9372 72.7374 92.9168 73.5209C93.9 74.2975 95.1332 74.688 96.3843 74.6189L101.292 74.3589L100.324 71.8175Z" fill="url(#paint18_linear)"/>
<path d="M98.9959 49.5138L107.71 71.4151L140.135 69.6435L122.644 48.2279L98.9959 49.5138Z" fill="url(#paint19_linear)"/>
<path d="M70.8913 73.4443L68.5901 73.5699L70.0025 99.4565L72.3038 99.331L70.8913 73.4443Z" fill="url(#paint20_linear)"/>
<path d="M73.751 59.8219C82.4383 60.6697 90.8703 63.2364 98.5567 67.3725L91.9593 50.7769C91.8588 50.5272 91.6825 50.3154 91.4553 50.1712C91.2282 50.027 90.9615 49.9577 90.6928 49.973L73.2584 50.9129L73.751 59.8219Z" fill="url(#paint21_linear)"/>
<path d="M122.644 48.2279L98.9949 49.5214L101.441 55.6622C107.813 56.8477 120.958 59.3604 134.088 62.2417L122.644 48.2279Z" fill="url(#paint22_linear)"/>
<path d="M85.4857 86.0601L80.9466 86.2729C80.5984 86.2938 80.2728 86.452 80.0411 86.7127C79.8094 86.9735 79.6907 87.3155 79.7109 87.6637C79.7318 88.0118 79.8899 88.3375 80.1507 88.5692C80.4114 88.8008 80.7534 88.9196 81.1016 88.8994L85.6407 88.6867C85.8138 88.6783 85.9835 88.6355 86.1398 88.5607C86.2961 88.4859 86.4359 88.3807 86.551 88.2511C86.6661 88.1216 86.7542 87.9704 86.8101 87.8063C86.866 87.6423 86.8885 87.4688 86.8765 87.2959C86.8681 87.1228 86.8253 86.9531 86.7505 86.7968C86.6757 86.6405 86.5705 86.5007 86.4409 86.3856C86.3114 86.2705 86.1601 86.1824 85.9961 86.1265C85.8321 86.0706 85.6586 86.0481 85.4857 86.0601Z" fill="white"/>
<path d="M100.257 119.854C107.052 120.691 113.238 115.86 114.075 109.065C114.911 102.271 110.081 96.0843 103.286 95.2479C96.4909 94.4116 90.3046 99.2419 89.4682 106.037C88.6319 112.832 93.4623 119.018 100.257 119.854Z" fill="url(#paint23_linear)"/>
<path d="M107.86 107.221C107.798 106.009 107.378 104.842 106.652 103.87C105.927 102.897 104.929 102.162 103.785 101.758C102.641 101.353 101.402 101.298 100.227 101.598C99.0509 101.898 97.991 102.541 97.1812 103.445C96.3714 104.349 95.8483 105.473 95.6781 106.674C95.508 107.875 95.6986 109.1 96.2257 110.193C96.7527 111.286 97.5925 112.198 98.6386 112.813C99.6846 113.428 100.89 113.718 102.101 113.647C103.715 113.553 105.226 112.824 106.305 111.62C107.383 110.416 107.943 108.835 107.86 107.221Z" fill="url(#paint24_linear)"/>
<path d="M106.05 107.322C106.005 106.475 105.71 105.66 105.202 104.981C104.694 104.301 103.996 103.788 103.196 103.506C102.396 103.223 101.531 103.184 100.709 103.394C99.887 103.604 99.1457 104.052 98.5788 104.683C98.012 105.314 97.645 106.099 97.5244 106.939C97.4039 107.779 97.5351 108.635 97.9014 109.4C98.2677 110.165 98.8527 110.805 99.5825 111.237C100.312 111.67 101.154 111.876 102.001 111.83C103.135 111.768 104.199 111.259 104.958 110.414C105.718 109.568 106.11 108.456 106.05 107.322Z" fill="url(#paint25_linear)"/>
<path d="M103.232 103.519C102.366 103.204 101.422 103.177 100.539 103.442C99.6561 103.706 98.882 104.247 98.3313 104.986C97.7805 105.725 97.4824 106.621 97.481 107.543C97.4797 108.464 97.7752 109.362 98.3239 110.102C98.8725 110.842 99.645 111.386 100.527 111.653C101.409 111.92 102.353 111.895 103.22 111.583C104.087 111.272 104.831 110.689 105.341 109.921C105.85 109.153 106.099 108.242 106.05 107.322C106.006 106.481 105.715 105.672 105.214 104.996C104.712 104.32 104.023 103.806 103.232 103.519Z" fill="url(#paint26_linear)"/>
<path d="M116.256 96.8754L120.69 96.6334L121.316 108.101L116.882 108.343C116.273 108.376 115.677 108.167 115.223 107.76C114.77 107.353 114.496 106.783 114.463 106.175L114.087 99.2941C114.054 98.6858 114.264 98.0892 114.671 97.6356C115.077 97.182 115.648 96.9085 116.256 96.8754Z" fill="url(#paint27_linear)"/>
<path d="M156.767 94.6675L120.215 96.6619C119.312 96.7112 118.619 97.4837 118.669 98.3872L119.117 106.606C119.166 107.509 119.939 108.202 120.842 108.153L157.394 106.158C158.298 106.109 158.99 105.336 158.941 104.433L158.492 96.2143C158.443 95.3107 157.671 94.6182 156.767 94.6675Z" fill="url(#paint28_linear)"/>
<path d="M128.59 94.9219L126.237 91.6699C125.87 91.1619 125.382 90.754 124.817 90.4837C124.251 90.2133 123.628 90.089 123.002 90.1223L117.254 90.4409L115.468 90.5373C115.305 90.5461 115.146 90.5869 114.999 90.6573C114.852 90.7278 114.72 90.8264 114.612 90.9477C114.503 91.069 114.419 91.2105 114.365 91.3642C114.311 91.5179 114.288 91.6808 114.297 91.8434L114.505 95.7263C114.525 96.0537 114.674 96.3599 114.919 96.578C115.164 96.7961 115.485 96.9083 115.812 96.89L127.975 96.227C128.122 96.2192 128.265 96.1715 128.388 96.089C128.511 96.0065 128.609 95.8923 128.673 95.7585C128.736 95.6246 128.761 95.4761 128.747 95.3289C128.732 95.1816 128.678 95.0409 128.59 94.9219Z" fill="url(#paint29_linear)"/>
<path d="M156.401 93.4772C156.308 91.7089 155.877 89.9747 155.132 88.3684L152.887 88.4932C152.261 88.5269 151.653 88.717 151.12 89.0462C150.586 89.3754 150.143 89.8331 149.832 90.3775L147.859 93.8684C147.788 93.997 147.752 94.1423 147.756 94.2893C147.759 94.4363 147.802 94.5797 147.879 94.7047C147.957 94.8298 148.066 94.932 148.196 95.0007C148.326 95.0695 148.472 95.1023 148.619 95.0959L156.486 94.6679L156.401 93.4772Z" fill="url(#paint30_linear)"/>
<path d="M114.297 91.8434L114.505 95.7263C114.525 96.0536 114.674 96.3599 114.919 96.578C115.164 96.7961 115.485 96.9083 115.812 96.89L117.598 96.7936L117.254 90.4409L115.468 90.5373C115.305 90.5461 115.146 90.5869 114.999 90.6573C114.852 90.7277 114.72 90.8264 114.612 90.9477C114.503 91.069 114.419 91.2105 114.365 91.3642C114.311 91.5179 114.288 91.6807 114.297 91.8434Z" fill="#FFA538"/>
<path d="M127.382 100.543L122.941 100.768C122.725 100.78 122.513 100.834 122.318 100.928C122.122 101.021 121.947 101.152 121.803 101.314C121.658 101.475 121.547 101.664 121.475 101.868C121.404 102.073 121.373 102.289 121.385 102.505C121.41 102.942 121.607 103.351 121.932 103.644C122.257 103.937 122.684 104.09 123.121 104.069L127.554 103.843C127.771 103.833 127.984 103.779 128.18 103.686C128.376 103.593 128.552 103.462 128.697 103.301C128.843 103.139 128.955 102.951 129.027 102.746C129.099 102.541 129.13 102.324 129.118 102.107C129.107 101.89 129.054 101.678 128.961 101.481C128.868 101.285 128.737 101.109 128.575 100.964C128.414 100.819 128.225 100.707 128.02 100.634C127.816 100.562 127.598 100.531 127.382 100.543Z" fill="#FFA538"/>
<path d="M155.679 99.0275L151.239 99.2525C151.023 99.264 150.811 99.3181 150.615 99.4117C150.42 99.5053 150.245 99.6365 150.1 99.7979C149.956 99.9593 149.845 100.148 149.773 100.352C149.701 100.557 149.671 100.773 149.683 100.99C149.706 101.427 149.902 101.837 150.228 102.13C150.553 102.424 150.982 102.576 151.419 102.553L155.859 102.328C156.076 102.317 156.288 102.263 156.483 102.169C156.679 102.075 156.854 101.944 156.998 101.783C157.143 101.621 157.254 101.433 157.326 101.229C157.397 101.024 157.428 100.808 157.416 100.591C157.405 100.374 157.352 100.162 157.259 99.9654C157.165 99.7692 157.034 99.5933 156.873 99.448C156.712 99.3026 156.523 99.1906 156.318 99.1185C156.113 99.0463 155.896 99.0154 155.679 99.0275Z" fill="#FFA538"/>
<path d="M146.547 98.7479L134.521 99.4041C134.078 99.4283 133.738 99.8073 133.762 100.251L133.995 104.517C134.019 104.96 134.398 105.3 134.842 105.276L146.867 104.619C147.311 104.595 147.651 104.216 147.626 103.773L147.394 99.5069C147.369 99.0635 146.99 98.7238 146.547 98.7479Z" fill="#F7E041"/>
</g>
<defs>
<linearGradient id="paint0_linear" x1="16548.8" y1="5673.74" x2="16461.7" y2="4078.22" gradientUnits="userSpaceOnUse">
<stop stop-color="#292929"/>
<stop offset="1" stop-color="#424242"/>
</linearGradient>
<linearGradient id="paint1_linear" x1="18644.5" y1="5518.09" x2="18557.7" y2="3927.39" gradientUnits="userSpaceOnUse">
<stop stop-color="#292929"/>
<stop offset="1" stop-color="#424242"/>
</linearGradient>
<linearGradient id="paint2_linear" x1="11688.4" y1="5598.87" x2="11643.1" y2="4768.74" gradientUnits="userSpaceOnUse">
<stop stop-color="#292929"/>
<stop offset="1" stop-color="#424242"/>
</linearGradient>
<linearGradient id="paint3_linear" x1="13913.7" y1="5501.81" x2="13868.2" y2="4667.03" gradientUnits="userSpaceOnUse">
<stop stop-color="#292929"/>
<stop offset="1" stop-color="#424242"/>
</linearGradient>
<linearGradient id="paint4_linear" x1="30894.2" y1="14538.7" x2="30373.2" y2="4989.99" gradientUnits="userSpaceOnUse">
<stop stop-color="#F1986B"/>
<stop offset="1" stop-color="#FFD6A0"/>
</linearGradient>
<linearGradient id="paint5_linear" x1="24352" y1="10876.6" x2="23831" y2="1327.86" gradientUnits="userSpaceOnUse">
<stop stop-color="#F1986B"/>
<stop offset="1" stop-color="#FFD6A0"/>
</linearGradient>
<linearGradient id="paint6_linear" x1="10452.2" y1="651.91" x2="10437.4" y2="380.659" gradientUnits="userSpaceOnUse">
<stop stop-color="white"/>
<stop offset="1" stop-color="white" stop-opacity="0"/>
</linearGradient>
<linearGradient id="paint7_linear" x1="5071.24" y1="2311.78" x2="5054.42" y2="2003.36" gradientUnits="userSpaceOnUse">
<stop stop-color="#292929"/>
<stop offset="1" stop-color="#424242"/>
</linearGradient>
<linearGradient id="paint8_linear" x1="5018.03" y1="202.138" x2="5015.02" y2="151.411" gradientUnits="userSpaceOnUse">
<stop stop-color="#292929"/>
<stop offset="1" stop-color="#424242"/>
</linearGradient>
<linearGradient id="paint9_linear" x1="119.157" y1="148.705" x2="113.28" y2="40.9919" gradientUnits="userSpaceOnUse">
<stop stop-color="#E74C3C"/>
<stop offset="1" stop-color="#F9A2A1"/>
</linearGradient>
<linearGradient id="paint10_linear" x1="17974.9" y1="1600.59" x2="17965.4" y2="1425.01" gradientUnits="userSpaceOnUse">
<stop stop-color="#424242"/>
<stop offset="1" stop-color="#656565"/>
</linearGradient>
<linearGradient id="paint11_linear" x1="24681.1" y1="17574" x2="25624.7" y2="9907.11" gradientUnits="userSpaceOnUse">
<stop stop-color="#E74C3C"/>
<stop offset="1" stop-color="#F9A2A1"/>
</linearGradient>
<linearGradient id="paint12_linear" x1="27352.1" y1="11187.8" x2="27635.9" y2="8882" gradientUnits="userSpaceOnUse">
<stop stop-color="#E74C3C"/>
<stop offset="1" stop-color="#F9A2A1"/>
</linearGradient>
<linearGradient id="paint13_linear" x1="11744.1" y1="6334.88" x2="11654.7" y2="4695.59" gradientUnits="userSpaceOnUse">
<stop stop-color="#424242"/>
<stop offset="1" stop-color="#656565"/>
</linearGradient>
<linearGradient id="paint14_linear" x1="5782.37" y1="2681.35" x2="5770.16" y2="2457.6" gradientUnits="userSpaceOnUse">
<stop stop-color="#C2C2C2"/>
<stop offset="1" stop-color="white"/>
</linearGradient>
<linearGradient id="paint15_linear" x1="4071.84" y1="1781.69" x2="4075.68" y2="1851.98" gradientUnits="userSpaceOnUse">
<stop stop-color="#656565"/>
<stop offset="1" stop-color="#C2C2C2"/>
</linearGradient>
<linearGradient id="paint16_linear" x1="4262.46" y1="1807.88" x2="3868.32" y2="1829.39" gradientUnits="userSpaceOnUse">
<stop stop-color="#656565"/>
<stop offset="1" stop-color="#C2C2C2"/>
</linearGradient>
<linearGradient id="paint17_linear" x1="40.1343" y1="66.7731" x2="40.9382" y2="81.5054" gradientUnits="userSpaceOnUse">
<stop/>
<stop offset="1" stop-opacity="0"/>
</linearGradient>
<linearGradient id="paint18_linear" x1="88.4305" y1="84.1842" x2="86.2455" y2="44.1386" gradientUnits="userSpaceOnUse">
<stop stop-color="#2F97F7"/>
<stop offset="1" stop-color="#C9EDFF"/>
</linearGradient>
<linearGradient id="paint19_linear" x1="23672.9" y1="8085.31" x2="23815.3" y2="6928.15" gradientUnits="userSpaceOnUse">
<stop stop-color="#2F97F7"/>
<stop offset="1" stop-color="#C9EDFF"/>
</linearGradient>
<linearGradient id="paint20_linear" x1="72.2959" y1="120.549" x2="69.0359" y2="60.8014" gradientUnits="userSpaceOnUse">
<stop/>
<stop offset="0.02" stop-opacity="0.95"/>
<stop offset="1" stop-opacity="0"/>
</linearGradient>
<linearGradient id="paint21_linear" x1="14016.9" y1="2736.87" x2="14120" y2="2029.46" gradientUnits="userSpaceOnUse">
<stop stop-color="white"/>
<stop offset="1" stop-color="white" stop-opacity="0"/>
</linearGradient>
<linearGradient id="paint22_linear" x1="20340.4" y1="1379.34" x2="20355.8" y2="1054.93" gradientUnits="userSpaceOnUse">
<stop stop-color="white"/>
<stop offset="1" stop-color="white" stop-opacity="0"/>
</linearGradient>
<linearGradient id="paint23_linear" x1="13634.3" y1="6233.23" x2="13544.8" y2="4593.94" gradientUnits="userSpaceOnUse">
<stop stop-color="#424242"/>
<stop offset="1" stop-color="#656565"/>
</linearGradient>
<linearGradient id="paint24_linear" x1="6768.01" y1="2639.95" x2="6755.76" y2="2415.36" gradientUnits="userSpaceOnUse">
<stop stop-color="#C2C2C2"/>
<stop offset="1" stop-color="white"/>
</linearGradient>
<linearGradient id="paint25_linear" x1="4764.59" y1="1745.38" x2="4768.43" y2="1815.68" gradientUnits="userSpaceOnUse">
<stop stop-color="#656565"/>
<stop offset="1" stop-color="#C2C2C2"/>
</linearGradient>
<linearGradient id="paint26_linear" x1="4955.2" y1="1771.57" x2="4561.06" y2="1793.07" gradientUnits="userSpaceOnUse">
<stop stop-color="#656565"/>
<stop offset="1" stop-color="#C2C2C2"/>
</linearGradient>
<linearGradient id="paint27_linear" x1="3983.68" y1="2462.8" x2="3968.47" y2="2184.13" gradientUnits="userSpaceOnUse">
<stop stop-color="#424242"/>
<stop offset="1" stop-color="#656565"/>
</linearGradient>
<linearGradient id="paint28_linear" x1="23389.5" y1="1581.27" x2="23371.6" y2="1252.63" gradientUnits="userSpaceOnUse">
<stop stop-color="#424242"/>
<stop offset="1" stop-color="#656565"/>
</linearGradient>
<linearGradient id="paint29_linear" x1="112.378" y1="93.8955" x2="132.73" y2="92.785" gradientUnits="userSpaceOnUse">
<stop stop-color="#D1D1D1"/>
<stop offset="1" stop-color="white"/>
</linearGradient>
<linearGradient id="paint30_linear" x1="5070.73" y1="2272.04" x2="5211.46" y2="2289.36" gradientUnits="userSpaceOnUse">
<stop stop-color="#D1D1D1"/>
<stop offset="1" stop-color="white"/>
</linearGradient>
<clipPath id="clip0">
<rect width="167" height="137" fill="white"/>
</clipPath>
</defs>
</svg>
