<svg width="167" height="137" viewBox="0 0 167 137" fill="none" xmlns="http://www.w3.org/2000/svg">
<path d="M75.8053 116.526L111.414 97.5761C117.684 94.2398 120.372 87.0353 117.418 81.4843L83.6611 18.0509C80.7071 12.5 73.23 10.7047 66.9606 14.0409L31.3515 32.9906C25.0822 36.3269 22.3947 43.5313 25.3487 49.0823L59.1052 112.516C62.0592 118.067 69.536 119.862 75.8053 116.526Z" fill="#262626"/>
<path d="M74.5046 117.218L106.034 100.44C111.585 97.4856 113.69 90.5909 110.736 85.04L76.9795 21.6066C74.0255 16.0556 67.1307 13.9504 61.5798 16.9044L30.0508 33.6828C24.4998 36.6368 22.3947 43.5314 25.3487 49.0823L59.1052 112.516C62.0592 118.067 68.9537 120.172 74.5046 117.218Z" fill="#342D3A"/>
<path d="M72.2943 103.948L95.8601 91.4077C100.009 89.1998 101.583 84.0465 99.3749 79.8975L74.1441 32.4852C71.9362 28.3363 66.7828 26.7628 62.6338 28.9707L39.0679 41.5114C34.919 43.7193 33.3455 48.8726 35.5534 53.0215L60.7842 100.434C62.9921 104.583 68.1453 106.156 72.2943 103.948Z" fill="white"/>
<path d="M75.9214 12.5284H132.968C135.304 12.5284 137.545 13.4605 139.197 15.1196C140.85 16.7787 141.778 19.0289 141.778 21.3752V48.2696C141.778 50.6159 140.85 52.8661 139.197 54.5252C137.545 56.1843 135.304 57.1164 132.968 57.1164H93.5154L90.238 60.4074V66.7506H83.921V57.0722H75.9214C73.5847 57.0722 71.3438 56.1401 69.6916 54.481C68.0394 52.8219 67.1111 50.5717 67.1111 48.2253V21.331C67.1228 18.9924 68.0562 16.7535 69.7071 15.1039C71.3581 13.4544 73.5924 12.5284 75.9214 12.5284Z" fill="url(#paint0_linear)"/>
<path d="M82.1394 12.5284H139.194C141.529 12.5284 143.769 13.4605 145.421 15.1196C147.072 16.7787 148 19.0289 148 21.3752V48.2696C148 50.6159 147.072 52.8661 145.421 54.5252C143.769 56.1843 141.529 57.1164 139.194 57.1164H99.7516L90.1618 66.7506V57.0722H82.1394C79.8039 57.0722 77.5641 56.1401 75.9126 54.481C74.2611 52.8219 73.3334 50.5717 73.3334 48.2253V21.331C73.345 18.9924 74.2779 16.7535 75.9281 15.1039C77.5783 13.4544 79.8115 12.5284 82.1394 12.5284Z" fill="#76E373"/>
<path d="M88.8976 29.4173H86.2443V30.2789C85.5562 30.7588 84.99 31.42 84.5978 32.2015C84.2056 32.983 84 33.8596 84 34.7506C84 35.6416 84.2056 36.5183 84.5978 37.2998C84.99 38.0812 85.5562 38.7424 86.2443 39.2224V40.084H88.8897C90.1861 40.084 91.4294 39.5221 92.3461 38.5219C93.2628 37.5217 93.7778 36.1651 93.7778 34.7506C93.7778 33.3361 93.2628 31.9796 92.3461 30.9794C91.4294 29.9792 90.1861 29.4173 88.8897 29.4173H88.8976Z" fill="url(#paint1_linear)"/>
<path d="M86.2222 40.084C88.9223 40.084 91.1111 37.6961 91.1111 34.7506C91.1111 31.8051 88.9223 29.4173 86.2222 29.4173C83.5222 29.4173 81.3333 31.8051 81.3333 34.7506C81.3333 37.6961 83.5222 40.084 86.2222 40.084Z" fill="url(#paint2_linear)"/>
<path d="M104.445 29.4173H101.559V30.2789C100.809 30.7588 100.191 31.42 99.7632 32.2015C99.3354 32.983 99.1111 33.8596 99.1111 34.7506C99.1111 35.6416 99.3354 36.5183 99.7632 37.2998C100.191 38.0812 100.809 38.7424 101.559 39.2224V40.084H104.445C105.86 40.084 107.216 39.5221 108.216 38.5219C109.216 37.5217 109.778 36.1651 109.778 34.7506C109.778 33.3361 109.216 31.9796 108.216 30.9794C107.216 29.9792 105.86 29.4173 104.445 29.4173Z" fill="url(#paint3_linear)"/>
<path d="M102.222 40.084C104.922 40.084 107.111 37.6961 107.111 34.7506C107.111 31.8051 104.922 29.4173 102.222 29.4173C99.5222 29.4173 97.3333 31.8051 97.3333 34.7506C97.3333 37.6961 99.5222 40.084 102.222 40.084Z" fill="url(#paint4_linear)"/>
<path d="M120.001 29.4173H117.355V30.2789C116.667 30.7588 116.101 31.42 115.709 32.2015C115.317 32.983 115.111 33.8596 115.111 34.7506C115.111 35.6416 115.317 36.5183 115.709 37.2998C116.101 38.0812 116.667 38.7424 117.355 39.2224V40.084H120.001C121.297 40.084 122.54 39.5221 123.457 38.5219C124.374 37.5217 124.889 36.1651 124.889 34.7506C124.889 33.3361 124.374 31.9796 123.457 30.9794C122.54 29.9792 121.297 29.4173 120.001 29.4173Z" fill="url(#paint5_linear)"/>
<path d="M117.778 40.084C120.723 40.084 123.111 37.6961 123.111 34.7506C123.111 31.8051 120.723 29.4173 117.778 29.4173C114.832 29.4173 112.444 31.8051 112.444 34.7506C112.444 37.6961 114.832 40.084 117.778 40.084Z" fill="url(#paint6_linear)"/>
<path d="M136.001 29.4173H133.355V30.2789C132.667 30.7588 132.101 31.42 131.709 32.2015C131.317 32.983 131.111 33.8596 131.111 34.7506C131.111 35.6416 131.317 36.5183 131.709 37.2998C132.101 38.0812 132.667 38.7424 133.355 39.2224V40.084H136.001C137.297 40.084 138.54 39.5221 139.457 38.5219C140.374 37.5217 140.889 36.1651 140.889 34.7506C140.889 33.3361 140.374 31.9796 139.457 30.9794C138.54 29.9792 137.297 29.4173 136.001 29.4173Z" fill="url(#paint7_linear)"/>
<path d="M138.222 34.7506C138.222 33.6958 137.936 32.6646 137.398 31.7876C136.861 30.9105 136.098 30.2269 135.204 29.8233C134.311 29.4196 133.328 29.314 132.38 29.5198C131.431 29.7256 130.56 30.2335 129.876 30.9794C129.193 31.7253 128.727 32.6756 128.538 33.7101C128.35 34.7447 128.447 35.8171 128.817 36.7916C129.187 37.7662 129.813 38.5991 130.617 39.1851C131.421 39.7712 132.366 40.084 133.333 40.084C134.63 40.084 135.873 39.5221 136.79 38.5219C137.707 37.5217 138.222 36.1651 138.222 34.7506Z" fill="url(#paint8_linear)"/>
<defs>
<linearGradient id="paint0_linear" x1="-14549.6" y1="15476.2" x2="-14549.6" y2="8568.79" gradientUnits="userSpaceOnUse">
<stop stop-color="#D1D1D1"/>
<stop offset="1" stop-color="#CDE152"/>
</linearGradient>
<linearGradient id="paint1_linear" x1="1661.74" y1="2540.24" x2="1661.74" y2="2408.19" gradientUnits="userSpaceOnUse">
<stop stop-color="#424242"/>
<stop offset="1" stop-color="#656565"/>
</linearGradient>
<linearGradient id="paint2_linear" x1="1626.32" y1="2696.19" x2="1626.32" y2="2426.22" gradientUnits="userSpaceOnUse">
<stop stop-color="#292929"/>
<stop offset="1" stop-color="#424242"/>
</linearGradient>
<linearGradient id="paint3_linear" x1="2024.44" y1="2540.24" x2="2024.44" y2="2408.19" gradientUnits="userSpaceOnUse">
<stop stop-color="#424242"/>
<stop offset="1" stop-color="#656565"/>
</linearGradient>
<linearGradient id="paint4_linear" x1="1829.47" y1="2696.19" x2="1829.47" y2="2426.22" gradientUnits="userSpaceOnUse">
<stop stop-color="#292929"/>
<stop offset="1" stop-color="#424242"/>
</linearGradient>
<linearGradient id="paint5_linear" x1="2067.15" y1="2540.24" x2="2067.15" y2="2408.19" gradientUnits="userSpaceOnUse">
<stop stop-color="#424242"/>
<stop offset="1" stop-color="#656565"/>
</linearGradient>
<linearGradient id="paint6_linear" x1="2206.2" y1="2696.19" x2="2206.2" y2="2426.22" gradientUnits="userSpaceOnUse">
<stop stop-color="#292929"/>
<stop offset="1" stop-color="#424242"/>
</linearGradient>
<linearGradient id="paint7_linear" x1="2270.29" y1="2540.24" x2="2270.29" y2="2408.19" gradientUnits="userSpaceOnUse">
<stop stop-color="#424242"/>
<stop offset="1" stop-color="#656565"/>
</linearGradient>
<linearGradient id="paint8_linear" x1="2234.87" y1="2696.19" x2="2234.87" y2="2426.22" gradientUnits="userSpaceOnUse">
<stop stop-color="#292929"/>
<stop offset="1" stop-color="#424242"/>
</linearGradient>
</defs>
</svg>
